# xmcd
#
# Track frame offsets:
#	150
#	16012
#	31815
#	45635
#	71112
#	86872
#	108262
#	123942
#	143140
#	166290
#	178860
#	198135
#
# Disc length: 2950 seconds
#
# Revision: 0
# Processed by: cddbd v1.4b42PL1 Copyright (c) Steve Scherf et al.
# Submitted via: EZCDDA 4.3.3.2
#
DISCID=9a0b840c
DTITLE=Young Comets
DYEAR=1900
DGENRE=
TTITLE0=My Generation
TTITLE1=Where Do We Go From Here
TTITLE2=House Of Love
TTITLE3=Useless
TTITLE4=From Here (Is A Long Way To Go)
TTITLE5=The Club
TTITLE6=Why Must I Roam
TTITLE7=Louisiana Blues
TTITLE8=White Trash and Brown Sugar
TTITLE9=Can't Be Satisfied
TTITLE10=Water These Flowers
TTITLE11=Can't Be Satisfied (Slight Return)
EXTD=
EXTT0=
EXTT1=
EXTT2=
EXTT3=
EXTT4=
EXTT5=
EXTT6=
EXTT7=
EXTT8=
EXTT9=
EXTT10=
EXTT11=
PLAYORDER=
